<svg xmlns="http://www.w3.org/2000/svg" viewBox="0 0 136.34 132.51"><defs><style>.cls-1{fill:#ec744d;}.cls-2{fill:#f4d85f;}.cls-3{fill:#f1d65c;}.cls-4{fill:none;stroke:#231f20;stroke-miterlimit:10;}</style></defs><title>Asset 6</title><g id="Layer_2" data-name="Layer 2"><g id="aquaman_trace"><rect class="cls-1" width="136.34" height="132.51"/><path class="cls-2" d="M56.77,116.51C46.38,111.4,23.91,96.94,23.91,96.94,34.3,50.3,39.74,45.36,39.74,45.36,49.28,26,67.66,15.91,67.66,15.91L75,19.83C87.4,30.21,96.09,46.72,96.09,46.72c9.36,14.3,13.27,37.62,13.27,37.62l2.21,11.92.17,1.7L80.43,116.68c7.66-11.74,7.48-19.23,7.48-19.23.52-19.24-11.57-25.71-11.57-25.71-13.45-7.14-18.89,1.54-18.89,1.54-9.19,9.36-9.54,19.23-9.54,19.23a35.52,35.52,0,0,0,1.37,14C50.81,109.87,56.77,116.51,56.77,116.51Z"/><path class="cls-3" d="M45.87,106.64c-3.74-6.81-.51-21.45-.51-21.45,7.15-17.36,19.41-18.55,19.41-18.55,11.91-2.73,19.06,8.51,19.06,8.51,10,12.25,7.83,24.17,7.83,24.17.68,1.7-2.21,8-2.21,8,12.76-8.85,18-11.23,18-11.23-4.77-29.28-14.3-45.45-14.3-45.45-7.32-16.51-21.1-26.73-21.1-26.73-3.41-4.25-4.77-4.08-4.77-4.08A80.54,80.54,0,0,0,47.23,39.91C35.15,54.72,30,85.7,30,85.7L28.17,96.26C31.74,99.66,45.87,106.64,45.87,106.64Z"/><path class="cls-4" d="M45.87,106.64c-3.74-6.81-.51-21.45-.51-21.45,7.15-17.36,19.41-18.55,19.41-18.55,11.91-2.73,19.06,8.51,19.06,8.51,10,12.25,7.83,24.17,7.83,24.17.68,1.7-2.21,8-2.21,8,12.76-8.85,18-11.23,18-11.23-4.77-29.28-14.3-45.45-14.3-45.45-7.32-16.51-21.1-26.73-21.1-26.73-3.41-4.25-4.77-4.08-4.77-4.08A80.54,80.54,0,0,0,47.23,39.91C35.15,54.72,30,85.7,30,85.7L28.17,96.26C31.74,99.66,45.87,106.64,45.87,106.64Z"/></g></g></svg>