<svg xmlns="http://www.w3.org/2000/svg" xmlns:xlink="http://www.w3.org/1999/xlink" viewBox="0 0 102.13 121.28"><defs><style>.cls-1{fill:url(#linear-gradient);}.cls-2{fill:#8e8e8e;}.cls-2,.cls-3{stroke:#000;stroke-miterlimit:10;stroke-width:0.5px;}.cls-3{fill:#919191;}</style><linearGradient id="linear-gradient" x1="6.64" y1="59.11" x2="95.23" y2="59.11" gradientUnits="userSpaceOnUse"><stop offset="0.06" stop-color="#fff"/><stop offset="0.51" stop-color="#8e8c8c"/><stop offset="1"/></linearGradient></defs><title>Asset 7</title><g id="Layer_2" data-name="Layer 2"><g id="justice_league_logo"><polygon points="0 0 0.01 1.02 0.77 95.23 50.81 121.28 102.13 94.21 102.13 0.26 0 0"/><polygon class="cls-1" points="7.15 6.89 6.64 88.34 51.32 111.83 95.23 87.32 95.23 6.38 7.15 6.89"/><path class="cls-2" d="M21.45,16.6,26.3,28.34H37.79L37.53,76.6l-10,.76.26-21.45L16.09,63.83l.25,16.85s-.25-5.87-.25,1,1.27,7.41,1.27,7.41c4.09,3.32,25.79.51,25.79.51A6.68,6.68,0,0,0,50,84l-.51-27.57L43.66,59l2.55-7.66,1-2.55-7.91-5.11,10-1.53L49,15.57Z"/><polygon class="cls-3" points="53.87 16.34 54.13 39.57 54.64 42.89 63.57 43.4 56.68 49.28 59.49 58.47 53.87 55.66 53.36 99.83 85.28 85.02 85.79 71.49 66.64 79.15 66.89 15.83 53.87 16.34"/></g></g></svg>